<svg version="1.1" xmlns="http://www.w3.org/2000/svg" xmlns:xlink="http://www.w3.org/1999/xlink" width="90.000000pt" height="121.000000pt" viewBox="0,0,190.41251,256"><g fill="#000000" fill-rule="nonzero" stroke="none" stroke-width="1" stroke-linecap="butt" stroke-linejoin="miter" stroke-miterlimit="10" stroke-dasharray="" stroke-dashoffset="0" font-family="none" font-weight="none" font-size="none" text-anchor="none" style="mix-blend-mode: normal"><g transform="translate(0.0926,-5.18688) scale(2.1157,2.1157)"><g transform="translate(0,121) scale(0.1,-0.1)"><path d="M321,1080c-66,-24 -91,-40 -141,-90c-124,-124 -132,-307 -25,-520c62,-123 274,-416 295,-408c16,5 151,179 212,272c117,178 163,304 156,427c-8,135 -83,247 -208,306c-76,37 -210,43 -289,13zM505,856c45,-19 75,-69 75,-125c0,-37 -6,-49 -39,-82c-34,-34 -44,-39 -86,-39c-54,0 -95,21 -119,60c-36,62 -7,157 57,185c41,18 69,18 112,1z"></path></g></g></g></svg>